<?xml version="1.0" encoding="UTF-8"?>
<!DOCTYPE svg PUBLIC "-//W3C//DTD SVG 1.1//EN" "http://www.w3.org/Graphics/SVG/1.1/DTD/svg11.dtd">
<!-- Creator: CorelDRAW -->
<svg xmlns="http://www.w3.org/2000/svg" xml:space="preserve" width="5.853mm" height="5.853mm" version="1.1" style="shape-rendering:geometricPrecision; text-rendering:geometricPrecision; image-rendering:optimizeQuality; fill-rule:evenodd; clip-rule:evenodd"
viewBox="0 0 12.2 12.2"
 xmlns:xlink="http://www.w3.org/1999/xlink"
 xmlns:xodm="http://www.corel.com/coreldraw/odm/2003">
 <defs>
  <style type="text/css">
   <![CDATA[
    .str0 {stroke:white;stroke-width:1.1;stroke-linecap:round;stroke-linejoin:round;stroke-miterlimit:22.9256}
    .fil0 {fill:none}
   ]]>
  </style>
 </defs>
 <g id="Camada_x0020_1">
  <metadata id="CorelCorpID_0Corel-Layer"/>
  <path class="fil0 str0" d="M5.52 1.72l-3.86 0c-0.61,0 -1.1,0.49 -1.1,1.1l0 7.72c0,0.61 0.49,1.1 1.1,1.1l7.72 0c0.61,0 1.1,-0.49 1.1,-1.1l0 -3.86"/>
  <path class="fil0 str0" d="M9.66 0.89c0.22,-0.22 0.52,-0.34 0.83,-0.34 0.65,0 1.17,0.52 1.17,1.17 0,0.31 -0.12,0.61 -0.34,0.83l-5.24 5.24 -2.21 0.55 0.55 -2.21 5.24 -5.24 0 -0z"/>
 </g>
</svg>
